<svg width="38" height="38" viewBox="0 0 38 38" fill="none" xmlns="http://www.w3.org/2000/svg">
<path d="M19 23.75C21.6233 23.75 23.75 21.6234 23.75 19C23.75 16.3767 21.6233 14.25 19 14.25C16.3766 14.25 14.25 16.3767 14.25 19C14.25 21.6234 16.3766 23.75 19 23.75Z" stroke="#F5F5F5" stroke-width="4" stroke-linecap="round" stroke-linejoin="round"/>
<path d="M30.7167 23.75C30.5059 24.2276 30.443 24.7573 30.5362 25.2709C30.6293 25.7846 30.8741 26.2585 31.2392 26.6317L31.3342 26.7267C31.6286 27.0208 31.8622 27.37 32.0215 27.7544C32.1809 28.1389 32.2629 28.5509 32.2629 28.9671C32.2629 29.3832 32.1809 29.7953 32.0215 30.1797C31.8622 30.5642 31.6286 30.9134 31.3342 31.2075C31.0401 31.5019 30.6908 31.7355 30.3064 31.8949C29.922 32.0542 29.5099 32.1363 29.0937 32.1363C28.6776 32.1363 28.2655 32.0542 27.8811 31.8949C27.4967 31.7355 27.1474 31.5019 26.8533 31.2075L26.7583 31.1125C26.3852 30.7475 25.9112 30.5026 25.3976 30.4095C24.884 30.3164 24.3542 30.3792 23.8767 30.59C23.4084 30.7907 23.009 31.124 22.7276 31.5488C22.4463 31.9736 22.2954 32.4713 22.2933 32.9808V33.25C22.2933 34.0899 21.9597 34.8953 21.3658 35.4892C20.772 36.083 19.9665 36.4167 19.1267 36.4167C18.2868 36.4167 17.4814 36.083 16.8875 35.4892C16.2936 34.8953 15.96 34.0899 15.96 33.25V33.1075C15.9477 32.5834 15.7781 32.0752 15.4731 31.6488C15.1682 31.2224 14.742 30.8976 14.25 30.7167C13.7724 30.5059 13.2427 30.443 12.7291 30.5362C12.2154 30.6293 11.7415 30.8742 11.3683 31.2392L11.2733 31.3342C10.9792 31.6286 10.63 31.8622 10.2456 32.0215C9.86113 32.1809 9.44906 32.2629 9.03291 32.2629C8.61676 32.2629 8.20469 32.1809 7.82027 32.0215C7.43584 31.8622 7.08659 31.6286 6.79249 31.3342C6.49807 31.0401 6.2645 30.6908 6.10514 30.3064C5.94578 29.922 5.86375 29.5099 5.86375 29.0938C5.86375 28.6776 5.94578 28.2655 6.10514 27.8811C6.2645 27.4967 6.49807 27.1474 6.79249 26.8533L6.88749 26.7583C7.25251 26.3852 7.49737 25.9112 7.5905 25.3976C7.68363 24.884 7.62076 24.3542 7.40999 23.8767C7.20929 23.4084 6.87602 23.009 6.45123 22.7277C6.02644 22.4463 5.52866 22.2954 5.01916 22.2933H4.74999C3.91014 22.2933 3.10469 21.9597 2.51082 21.3658C1.91696 20.772 1.58333 19.9665 1.58333 19.1267C1.58333 18.2868 1.91696 17.4814 2.51082 16.8875C3.10469 16.2936 3.91014 15.96 4.74999 15.96H4.89249C5.41657 15.9478 5.92484 15.7781 6.35122 15.4732C6.7776 15.1682 7.10238 14.742 7.28333 14.25C7.49409 13.7725 7.55697 13.2427 7.46384 12.7291C7.37071 12.2155 7.12584 11.7415 6.76083 11.3683L6.66583 11.2733C6.3714 10.9792 6.13783 10.63 5.97847 10.2456C5.81911 9.86114 5.73709 9.44908 5.73709 9.03293C5.73709 8.61678 5.81911 8.20471 5.97847 7.82028C6.13783 7.43585 6.3714 7.08661 6.66583 6.79251C6.95993 6.49808 7.30917 6.26451 7.6936 6.10515C8.07803 5.94579 8.4901 5.86377 8.90624 5.86377C9.32239 5.86377 9.73446 5.94579 10.1189 6.10515C10.5033 6.26451 10.8526 6.49808 11.1467 6.79251L11.2417 6.88751C11.6148 7.25253 12.0888 7.49739 12.6024 7.59052C13.116 7.68365 13.6458 7.62078 14.1233 7.41001H14.25C14.7183 7.2093 15.1177 6.87604 15.399 6.45125C15.6803 6.02645 15.8313 5.52867 15.8333 5.01918V4.75001C15.8333 3.91016 16.167 3.1047 16.7608 2.51084C17.3547 1.91697 18.1601 1.58334 19 1.58334C19.8398 1.58334 20.6453 1.91697 21.2392 2.51084C21.833 3.1047 22.1667 3.91016 22.1667 4.75001V4.89251C22.1687 5.40201 22.3197 5.89979 22.601 6.32458C22.8823 6.74937 23.2817 7.08264 23.75 7.28334C24.2276 7.49411 24.7573 7.55698 25.2709 7.46385C25.7846 7.37072 26.2585 7.12586 26.6317 6.76084L26.7267 6.66584C27.0208 6.37142 27.37 6.13785 27.7544 5.97849C28.1389 5.81913 28.5509 5.7371 28.9671 5.7371C29.3832 5.7371 29.7953 5.81913 30.1797 5.97849C30.5641 6.13785 30.9134 6.37142 31.2075 6.66584C31.5019 6.95994 31.7355 7.30919 31.8948 7.69362C32.0542 8.07804 32.1362 8.49011 32.1362 8.90626C32.1362 9.32241 32.0542 9.73448 31.8948 10.1189C31.7355 10.5033 31.5019 10.8526 31.2075 11.1467L31.1125 11.2417C30.7475 11.6148 30.5026 12.0888 30.4095 12.6024C30.3164 13.116 30.3792 13.6458 30.59 14.1233V14.25C30.7907 14.7183 31.124 15.1177 31.5488 15.399C31.9736 15.6803 32.4713 15.8313 32.9808 15.8333H33.25C34.0898 15.8333 34.8953 16.167 35.4892 16.7608C36.083 17.3547 36.4167 18.1602 36.4167 19C36.4167 19.8399 36.083 20.6453 35.4892 21.2392C34.8953 21.833 34.0898 22.1667 33.25 22.1667H33.1075C32.598 22.1687 32.1002 22.3197 31.6754 22.601C31.2506 22.8823 30.9174 23.2817 30.7167 23.75Z" stroke="#F5F5F5" stroke-width="4" stroke-linecap="round" stroke-linejoin="round"/>
</svg>
